# xmcd
#
# Track frame offsets: 
#        150
#        3395
#        34967
#        56112
#        94485
#        111175
#        135673
#        157201
#        181219
#        215011
#        260090
#        310656
#
# Disc length: 4620 seconds
#
# Revision: 0
# Processed by: cddbd v1.5.2PL0 Copyright (c) Steve Scherf et al.
# Submitted via: ExactAudioCopy v0.99pb5
#
DISCID=b2120a0c
DTITLE=Various Artist - Bluesgarage Isernhagen - Absolutely Live - 3
DYEAR=2007
DGENRE=Blues
TTITLE0=Henry - Intro
TTITLE1=Chris Farlowe - The Guitar Don't Lie
TTITLE2=Mike Brosnan - Home To You
TTITLE3=Tony Spinner Band - Bourbon And A Fast Car
TTITLE4=Elizabeth Lee -Naked
TTITLE5=Henrik Freischlader Band - Is It Right
TTITLE6=The Brandos- Over The Border
TTITLE7=Meike Koester, Carloine Aiken - Poverty
TTITLE8=John Campbelljohn - Sydney Steel - Ready For A Riot
TTITLE9=Uli Jon Roth and Sky Band - Dark Lady
TTITLE10=Mitch Ryder and Engerling - Red Scar Eyes
TTITLE11=All Star Band - Hocus Pocus
EXTD=
EXTT0=
EXTT1=
EXTT2=
EXTT3=
EXTT4=
EXTT5=
EXTT6=
EXTT7=
EXTT8=
EXTT9=
EXTT10=
EXTT11=
PLAYORDER=
